# xmcd
#
# Track frame offsets:
#	150
#	24861
#	46470
#	73910
#	99706
#	123600
#	152136
#	174788
#	202853
#	222228
#	245843
#	268490
#	291549
#	309510
#
# Disc length: 4435 seconds
# Revision: 1
# Processed by: cddbd v1.5.2PL0 Copyright (c) Steve Scherf et al.
# Submitted via: dBpowerAMP V12.0
#
DISCID=d811510e
DTITLE=Studebaker John - Old School Rockin'
DYEAR=2012
DGENRE=Blues
TTITLE0=Rockin' That Boogie
TTITLE1=Disease Called Love
TTITLE2=Fire Down Below
TTITLE3=Rockin' Hot
TTITLE4=Fine Little Machine
TTITLE5=Old School Rockin'
TTITLE6=She Got It Right
TTITLE7=Deal With the Devil
TTITLE8=I Stand Alone
TTITLE9=Mesmerized
TTITLE10=Brand New Rider
TTITLE11=Dark Night
TTITLE12=On the Down Low
TTITLE13=Tumblin' Down the Road
EXTD=
EXTT0=
EXTT1=
EXTT2=
EXTT3=
EXTT4=
EXTT5=
EXTT6=
EXTT7=
EXTT8=
EXTT9=
EXTT10=
EXTT11=
EXTT12=
EXTT13=
PLAYORDER=
